<?xml version="1.0" encoding="UTF-8" standalone="no"?>
<svg
   xmlns:dc="http://purl.org/dc/elements/1.1/"
   xmlns:cc="http://creativecommons.org/ns#"
   xmlns:rdf="http://www.w3.org/1999/02/22-rdf-syntax-ns#"
   xmlns:svg="http://www.w3.org/2000/svg"
   xmlns="http://www.w3.org/2000/svg"
   id="svg86"
   onload=""
   preserveAspectRatio="xMidYMid meet"
   version="1.1"
   viewBox="-3 -1 40 40"
   height="40"
   class="logo-icon">
  <metadata
     id="metadata90">
    <rdf:RDF>
      <cc:Work
         rdf:about="">
        <dc:format>image/svg+xml</dc:format>
        <dc:type
           rdf:resource="http://purl.org/dc/dcmitype/StillImage" />
        <dc:title></dc:title>
      </cc:Work>
    </rdf:RDF>
  </metadata>
  <defs
     id="svgEditorDefs">
    <pattern
       y="0"
       x="0"
       width="10"
       viewBox="0 0 10 10"
       patternUnits="userSpaceOnUse"
       patternTransform="rotate(45) scale(0.4)"
       id="hatch-black-45"
       height="10">
      <line
         id="line51"
         y2="5"
         y1="5"
         x2="10"
         x1="0"
         style="stroke:black;stroke-width:1px;" />
    </pattern>
    <style
       id="style54"
       type="text/css">#e1_texte{}
</style>
  </defs>
  <rect
     style="fill:none; stroke: none;"
     height="53"
     width="53"
     y="0"
     x="0"
     id="svgEditorBackground" />
  <g
     transform="matrix(0.581914 0.00627661 -0.00627661 0.581914 0.843002 3.85724)"
     fill-rule="evenodd"
     fill="none"
     stroke-width="1"
     stroke="none"
     id="Page-1">
    <g
       transform="translate(-316.000000, -1000.000000)"
       id="Final-logo">
      <g
         transform="translate(316.000000, 996.000000)"
         id="Group-3">
        <g
           fill="#53565A"
           transform="scale(0.155, .155)"
           id="logo-circle">
          <path
             id="path58"
             transform="scale(1, 0.5);"
             d="M177.8423378395395,22.38230421598549a169.73,169.73,0,1,0,169.7200000000001,169.72000000000003a169.72,169.72,0,0,0,-169.7200000000001,-169.72ZM45.61233783953954,177.60230421598555h0v-18h28.999999999999993v18h-10.819999999999986a27.79,27.79,0,0,0,55.559999999999995,0h-26.820000000000007v-91.00000000000009h0v-5.219999999999999a132,132,0,0,1,17.999999999999986,-13.219999999999999v91.43000000000009h26.999999999999986v17.5h0c0,25.090000000000003,-20.629999999999967,45.5,-45.99999999999997,45.5c-25.14,0.009999999999990905,-45.64999999999999,-20.129999999999995,-45.919999999999995,-44.99000000000001ZM187.6123378395395,316.2723042159854v18c-3,0.18000000000000682,-6,0.30000000000001137,-9,0.30000000000001137a142.23,142.23,0,0,1,-118.05999999999995,-62.99999999999994h22.359999999999985a123.62,123.62,0,0,0,86.69999999999999,44.66999999999996v-76.03999999999988l-22,16.22l-10.680000000000007,-14.47999999999999l32.68000000000001,-24.340000000000003h18ZM187.6123378395395,179.60230421598555h-18v-112.00000000000009a112.13,112.13,0,0,0,-39,11.150000000000006v-19.719999999999978a130.93,130.93,0,0,1,98.00000000000006,-0.8200000000000003v19.60999999999997a112.2,112.2,0,0,0,-41.00000000000006,-10.5ZM262.89233783953966,306.86230421598543a140.74,140.74,0,0,1,-57.33000000000007,25.180000000000007v-18.399999999999977c34.39000000000004,-10.490000000000009,57.91000000000011,-28.939999999999998,68.75000000000009,-42.099999999999966l22.319999999999993,0.06000000000005912a142,142,0,0,1,-33.74000000000001,35.25999999999988ZM263.54233783953964,222.60230421598558c-25.35000000000005,0,-46.00000000000006,-20.409999999999997,-46.00000000000006,-45.5h0v-17.5h29v-92.62000000000012a131.28,131.28,0,0,1,63.39000000000004,92.53000000000009l-18.389999999999986,0.09000000000000341c-4.430000000000007,-22.00000000000003,-15.319999999999993,-39.780000000000086,-27,-53.34000000000009v53.34000000000009l0,18h-28.75000000000003a27.79,27.79,0,0,0,55.55000000000004,0h18.189999999999998c-0.29000000000002046,24.860000000000014,-20.80000000000001,45,-45.99000000000001,45Z" />
        </g>
      </g>
    </g>
  </g>
  </svg>
